<svg width="97" height="30" viewBox="0 0 97 30" fill="none" xmlns="http://www.w3.org/2000/svg"><script xmlns="" id="argent-x-extension" data-extension-id="{51e0c76c-7dbc-41ba-a45d-c579be84301b}"/><script xmlns="" async="false" type="text/javascript" src="moz-extension_/5304ee20-242d-473e-8b06-4c55b418d712/in-page.html"/>
<g clip-path="url(#clip0_242_1348)">
<path fill-rule="evenodd" clip-rule="evenodd" d="M11.574 26.9295C11.5467 26.9012 11.5166 26.8759 11.4856 26.8514C11.1207 26.573 10.5677 26.6078 10.2508 26.9295L7.22729 30H14.5966L11.574 26.9295ZM16.6082 21.3555C16.5809 21.3272 16.5508 21.3019 16.5198 21.2774H16.5207C16.1558 20.999 15.6029 21.0338 15.2859 21.3555L12.1326 24.5577C11.7047 24.9921 11.7047 25.6373 12.1326 26.0718L15.2859 29.274C15.3132 29.3022 15.3433 29.3276 15.3743 29.352C15.5352 29.4752 15.7336 29.5373 15.932 29.5401C17.6248 28.6279 19.0374 27.2727 20.0342 25.626C20.149 25.2621 20.0587 24.8595 19.7615 24.5577L16.6082 21.3555ZM6.36021 21.3555C6.33293 21.3272 6.30284 21.3019 6.27181 21.2774H6.27275C5.90785 20.999 5.35488 21.0338 5.03795 21.3555L1.88465 24.5577C1.58747 24.8595 1.49624 25.2621 1.61192 25.626C2.60879 27.2727 4.02133 28.6279 5.71412 29.5401C5.95394 29.5364 6.19093 29.4461 6.36021 29.274L9.51351 26.0718C9.94141 25.6373 9.94141 24.9921 9.51351 24.5577L6.36021 21.3555ZM21.6452 19.7896C21.6452 18.3442 21.3791 16.9645 20.891 15.6996L20.8496 15.7043C20.6502 15.7307 20.4612 15.8172 20.3192 15.9611L17.1659 19.1633C16.738 19.5978 16.738 20.2429 17.1659 20.6774L20.3192 23.8796C20.3465 23.9078 20.3766 23.9332 20.4076 23.9577C20.5214 24.0442 20.654 24.1006 20.7913 24.1279C21.3424 22.7962 21.6452 21.3301 21.6452 19.7896ZM1.23762 15.884C1.09655 15.7758 0.928216 15.7156 0.755175 15.6996H0.754234C0.266145 16.9645 0 18.3442 0 19.7896C0 21.3301 0.302822 22.7962 0.852981 24.1269C1.03072 24.0931 1.19718 24.0094 1.32508 23.8796L4.47932 20.6783C4.90723 20.2439 4.90723 19.5987 4.47932 19.1642L1.32602 15.962C1.29875 15.9338 1.26866 15.9084 1.23762 15.884ZM11.1931 16.2611L11.1668 16.2366C10.9778 16.0739 10.6928 16.0815 10.5132 16.2611L10.059 16.7153L9.75238 16.4087L9.72981 16.388C9.61978 16.2996 9.45802 16.3062 9.35551 16.4087C9.24548 16.5178 9.24548 16.6956 9.35551 16.8056L9.6621 17.1122L9.0668 17.7075L8.76021 17.4009L8.73764 17.3802C8.62761 17.2918 8.46586 17.2984 8.36335 17.4009C8.25332 17.51 8.25332 17.6877 8.36335 17.7978L8.66993 18.1044L8.07463 18.6997L7.76805 18.3931L7.74548 18.3724C7.63545 18.284 7.47369 18.2906 7.37118 18.3931C7.26115 18.5022 7.26115 18.6799 7.37118 18.7899L7.67777 19.0965L7.22353 19.5508L7.19908 19.5771C7.03639 19.7661 7.04391 20.0511 7.22353 20.2307L7.67777 20.6849L7.37118 20.9915L7.35049 21.0141C7.26209 21.1241 7.26867 21.2859 7.37118 21.3884C7.48027 21.4984 7.65802 21.4984 7.76805 21.3884L8.07463 21.0818L8.66993 21.6771L8.36335 21.9837L8.34266 22.0062C8.25426 22.1163 8.26084 22.278 8.36335 22.3805C8.47244 22.4906 8.65018 22.4906 8.76021 22.3805L9.0668 22.074L9.6621 22.6693L9.35551 22.9758L9.33482 22.9984C9.24642 23.1084 9.25301 23.2702 9.35551 23.3727C9.46461 23.4827 9.64235 23.4827 9.75238 23.3727L10.059 23.0661L10.5132 23.5204L10.5395 23.5448C10.7286 23.7075 11.0135 23.7 11.1931 23.5204L11.6474 23.0661L11.954 23.3727L11.9765 23.3934C12.0866 23.4818 12.2483 23.4752 12.3508 23.3727C12.4609 23.2636 12.4609 23.0859 12.3508 22.9758L12.0442 22.6693L12.6395 22.074L12.9461 22.3805L12.9687 22.4012C13.0787 22.4896 13.2405 22.483 13.343 22.3805C13.453 22.2714 13.453 22.0937 13.343 21.9837L13.0364 21.6771L13.6317 21.0818L13.9383 21.3884L13.9609 21.4091C14.0709 21.4975 14.2326 21.4909 14.3352 21.3884C14.4452 21.2793 14.4452 21.1015 14.3352 20.9915L14.0286 20.6849L14.4828 20.2307L14.5073 20.2044C14.6699 20.0153 14.6624 19.7304 14.4828 19.5508L14.0286 19.0965L14.3352 18.7899L14.3558 18.7674C14.4442 18.6573 14.4377 18.4956 14.3352 18.3931C14.2261 18.283 14.0483 18.283 13.9383 18.3931L13.6317 18.6997L13.0364 18.1044L13.343 17.7978L13.3637 17.7752C13.4521 17.6652 13.4455 17.5034 13.343 17.4009C13.2339 17.2909 13.0562 17.2909 12.9461 17.4009L12.6395 17.7075L12.0442 17.1122L12.3508 16.8056L12.3715 16.783C12.4599 16.673 12.4533 16.5112 12.3508 16.4087C12.2417 16.2987 12.064 16.2987 11.954 16.4087L11.6474 16.7153L11.1931 16.2611ZM7.76429 19.8921L10.8527 16.8037L13.9411 19.8921L10.8527 22.9805L7.76429 19.8921ZM11.0982 18.5492L11.0737 18.5266C10.9373 18.4138 10.7351 18.4213 10.6072 18.5492L9.51069 19.6457L9.48812 19.6702C9.37526 19.8066 9.38279 20.0087 9.51069 20.1366L10.6072 21.2332L10.6317 21.2558C10.7681 21.3686 10.9703 21.3611 11.0982 21.2332L12.1947 20.1366L12.2173 20.1122C12.3301 19.9758 12.3226 19.7736 12.1947 19.6457L11.0982 18.5492ZM10.1464 19.8921L10.8527 19.1859L11.559 19.8921L10.8527 20.5984L10.1464 19.8921ZM16.6082 10.5677C16.5809 10.5394 16.5508 10.514 16.5198 10.4896C16.1549 10.2112 15.6019 10.246 15.285 10.5677L12.1317 13.7699C11.7038 14.2043 11.7038 14.8495 12.1317 15.284L15.285 18.4862C15.3123 18.5144 15.3424 18.5398 15.3734 18.5642C15.7383 18.8426 16.2913 18.8078 16.6082 18.4862L19.7615 15.284C20.1894 14.8495 20.1894 14.2043 19.7615 13.7699L16.6082 10.5677ZM6.36021 10.5677C6.33293 10.5394 6.30284 10.514 6.27181 10.4896C5.90691 10.2112 5.35393 10.246 5.03701 10.5677L1.8837 13.7699C1.4558 14.2043 1.4558 14.8495 1.8837 15.284L5.03701 18.4862C5.06428 18.5144 5.09437 18.5398 5.12541 18.5642C5.4903 18.8426 6.04328 18.8078 6.36021 18.4862L9.51351 15.284C9.94141 14.8495 9.94141 14.2043 9.51351 13.7699L6.36021 10.5677ZM14.5468 10.0702C14.6333 9.98176 14.7019 9.88583 14.7536 9.78427H14.7527H6.71005C6.76178 9.88583 6.83043 9.9827 6.91695 10.0702L10.0702 13.2724C10.0975 13.3006 10.1276 13.326 10.1587 13.3504C10.5235 13.6288 11.0765 13.594 11.3935 13.2724L14.5468 10.0702ZM11.0013 0.10618C10.9834 0.0723242 10.9543 0.0441109 10.9204 0.0253021C10.8207 -0.0292435 10.6966 0.00743369 10.643 0.10618L8.36429 4.27798L8.34736 4.30619C8.23169 4.483 7.99752 4.54318 7.80943 4.43974L3.49374 2.06794C3.43167 2.03409 3.35644 2.03503 3.29437 2.06982C3.19656 2.12531 3.16271 2.25039 3.21819 2.34819L6.67902 8.40558C6.75143 8.53254 6.88685 8.61153 7.03356 8.61153H14.6107C14.7574 8.61153 14.8928 8.53254 14.9652 8.40558L18.4261 2.34725C18.4618 2.28612 18.4618 2.20995 18.428 2.14788C18.3734 2.04913 18.2493 2.01246 18.1505 2.067L13.8348 4.4388L13.8057 4.45384C13.6129 4.54036 13.3834 4.46513 13.28 4.27704L11.0013 0.10618ZM35.9762 13.5943C35.6047 13.948 35.1423 14.1239 34.5869 14.1239V14.1219C34.0474 14.1219 33.585 13.946 33.1977 13.5923C32.8281 13.2208 32.6424 12.7583 32.6424 12.203C32.6424 11.6477 32.8281 11.1932 33.1977 10.8395C33.585 10.4857 34.0474 10.3098 34.5869 10.3098C35.16 10.3098 35.6304 10.4857 36.0019 10.8414C36.3714 11.211 36.5572 11.6655 36.5572 12.205C36.5572 12.7781 36.3635 13.2405 35.9762 13.5943ZM36.0256 15.6396V28.6963H33.1483V15.6396H36.0256ZM42.7941 21.7757V28.6963H39.8397V10.6636H47.3156C51.677 10.6636 53.8568 12.4738 53.8568 16.1949C53.8568 19.9161 51.6592 21.7757 47.2642 21.7757H42.7941ZM42.7941 19.2501H47.0883V19.2521C48.3847 19.2521 49.3451 19.0169 49.9676 18.5446C50.5743 18.0545 50.8767 17.2562 50.8767 16.1949C50.8767 15.1337 50.5644 14.3689 49.9419 13.8966C49.353 13.4243 48.4025 13.1892 47.0883 13.1892H42.7941V19.2501ZM66.9886 27.0798C65.7776 28.3935 64.1775 29.0496 62.1923 29.0501C60.2072 29.0496 58.6071 28.3935 57.3961 27.0798C56.2163 25.8348 55.6274 24.2183 55.6274 22.1808C55.6274 20.1434 56.2243 18.4933 57.4198 17.2305C58.5977 15.9341 60.2063 15.2859 62.1923 15.2859C64.1784 15.2859 65.7692 15.9341 66.9648 17.2305C68.1604 18.5268 68.7572 20.1948 68.7572 22.1808C68.7572 24.1669 68.1664 25.7992 66.9886 27.0798ZM62.1923 29.0501C62.1917 29.0501 62.191 29.0501 62.1904 29.0501H62.1943C62.1937 29.0501 62.193 29.0501 62.1923 29.0501ZM59.4118 25.2854C60.0679 26.2281 60.9948 26.7004 62.1904 26.7004C63.386 26.7004 64.3128 26.2281 64.9689 25.2854C65.542 24.4258 65.8285 23.4416 65.8285 22.1788C65.8285 20.9161 65.542 19.8707 64.9689 19.0466C64.3286 18.1039 63.4038 17.6316 62.1904 17.6316C60.977 17.6316 60.0521 18.1039 59.4118 19.0466C58.8565 19.8548 58.5779 20.9161 58.5779 22.1788C58.5779 23.4416 58.8565 24.4772 59.4118 25.2854ZM74.4131 10.3098V28.6963H71.5338V10.3098H74.4131ZM80.8278 10.3098V28.6963H77.9485V10.3098H80.8278ZM94.9714 27.0798C93.7604 28.3935 92.1604 29.0496 90.1752 29.0501C88.19 29.0496 86.59 28.3935 85.379 27.0798C84.1992 25.8348 83.6103 24.2183 83.6103 22.1808C83.6103 20.1434 84.2071 18.4933 85.4027 17.2305C86.5805 15.9341 88.1891 15.2859 90.1752 15.2859C92.1613 15.2859 93.7521 15.9341 94.9477 17.2305C96.1433 18.5268 96.7401 20.1948 96.7401 22.1808C96.7401 24.1669 96.1492 25.7992 94.9714 27.0798ZM90.1752 29.0501C90.1746 29.0501 90.1739 29.0501 90.1732 29.0501H90.1772C90.1765 29.0501 90.1759 29.0501 90.1752 29.0501ZM87.3947 25.2854C88.0508 26.2281 88.9776 26.7004 90.1732 26.7004C91.3688 26.7004 92.2957 26.2281 92.9518 25.2854C93.5248 24.4258 93.8114 23.4416 93.8114 22.1788C93.8114 20.9161 93.5248 19.8707 92.9518 19.0466C92.3115 18.1039 91.3866 17.6316 90.1732 17.6316C88.9598 17.6316 88.035 18.1039 87.3947 19.0466C86.8394 19.8548 86.5608 20.9161 86.5608 22.1788C86.5608 23.4416 86.8394 24.4772 87.3947 25.2854Z" fill="#9294AF"/>
</g>
<defs>
<clipPath id="clip0_242_1348">
<rect width="96.7401" height="30" fill="white"/>
</clipPath>
</defs>
</svg>