<svg width="118" height="30" viewBox="0 0 118 30" fill="none" xmlns="http://www.w3.org/2000/svg"><script xmlns="" id="argent-x-extension" data-extension-id="{51e0c76c-7dbc-41ba-a45d-c579be84301b}"/><script xmlns="" async="false" type="text/javascript" src="moz-extension_/5304ee20-242d-473e-8b06-4c55b418d712/in-page.html"/>
<g clip-path="url(#clip0_190_1373)">
<path d="M30.9284 15.0813C30.9284 6.79352 24.1525 0.122875 15.7969 0.00159037C7.06712 -0.119694 0.0417582 6.71267 0.000187959 14.7983C-0.0413823 23.2074 6.8177 29.9184 15.3812 29.9993C23.8615 30.0801 30.9284 23.2882 30.9284 15.0813Z" fill="#9294AF"/>
<path d="M30.9284 15.0813C30.9284 23.2882 23.8615 30.0397 15.4227 29.9993C6.8177 29.9184 -0.0413823 23.2074 0.000187958 14.7983C0.0417582 6.71267 7.06712 -0.119694 15.7969 0.00159037C24.1109 0.122875 30.9284 6.79352 30.9284 15.0813ZM3.69994 22.8031C4.0325 21.9541 4.36506 21.3072 4.48977 20.5795C4.8639 18.2751 5.19646 15.9303 5.48746 13.6259C5.73688 11.3215 6.90084 9.70435 8.93778 8.4915C11.6398 6.87438 14.6329 7.52123 17.5012 7.31909C18.0832 7.27866 18.7068 7.88508 19.2888 8.24893C19.8292 8.61279 20.328 9.13835 20.91 9.38092C22.3234 9.98734 23.8615 10.3108 25.2333 10.998C27.2287 12.0088 27.6028 13.4237 26.3557 15.2834C25.7322 16.1729 24.8592 16.9006 24.1525 17.7496C22.365 19.8922 20.4943 21.9541 18.9562 24.2585C18.2079 25.4309 18.1664 27.0076 17.7922 28.5843C23.6121 27.9779 28.8499 22.9244 29.7229 17.4666C30.7621 10.9172 27.395 4.85297 21.3257 2.22514C15.298 -0.321835 8.31423 1.33572 4.15721 6.38924C0.33275 10.998 0.0417579 17.9921 3.69994 22.8031ZM16.2126 11.564C16.2126 9.98735 14.9655 8.73407 13.3858 8.73407C11.9308 8.73407 10.559 10.1086 10.559 11.564C10.6006 13.1003 11.8893 14.3132 13.4689 14.2727C14.9655 14.2727 16.2126 13.0195 16.2126 11.564Z" fill="black"/>
<path d="M78.4432 13.3024C80.0645 13.3024 81.5194 13.3024 83.0575 13.3024C83.0575 15.243 83.0575 17.0622 83.0575 19.3666C82.3092 18.8815 81.8104 18.5985 81.2284 18.2347C79.5656 19.6496 76.4894 19.5284 74.7435 17.9921C72.7897 16.2537 72.3324 13.1003 73.7042 10.6746C74.8682 8.57233 77.3208 7.60205 79.7735 8.2489C81.6441 8.73404 82.7249 10.0277 82.7249 11.7662C81.7688 12.0087 81.1453 11.9683 80.5633 10.9172C79.6903 9.30004 77.0714 9.30004 75.9074 10.7959C74.785 12.2109 74.5772 15.3238 75.9074 16.4962C76.6557 17.1835 78.0275 17.5474 79.0668 17.4665C80.397 17.3857 81.1037 16.2941 81.1868 14.8387C80.2723 14.8387 79.3993 14.8387 78.4016 14.8387C78.4432 14.2727 78.4432 13.828 78.4432 13.3024Z" fill="#9294AF"/>
<path d="M48.5542 14.8791C49.2609 14.8791 49.8844 14.8791 50.508 14.8791C49.9676 18.1538 48.3463 19.3667 44.9792 19.1241C42.6097 18.9624 40.6974 16.7388 40.6559 14.1514C40.6143 11.0385 41.7783 9.05747 44.1893 8.37019C47.224 7.5212 50.3833 8.85533 50.4664 11.7662C49.4272 11.9683 48.6789 12.0492 48.0138 10.8363C47.0577 9.13833 44.4803 9.34047 43.3164 11.0385C42.4018 12.413 42.2355 15.0004 43.3995 16.1728C44.0646 16.8601 45.2702 17.4261 46.2263 17.4665C47.7644 17.5474 48.3048 16.2133 48.5542 14.8791Z" fill="#9294AF"/>
<path d="M108.54 11.4023C108.415 11.6044 108.374 11.7257 108.249 11.847C105.963 14.2322 106.004 14.2322 107.875 17.0218C108.291 17.6282 108.623 18.2346 109.08 18.9623C107.833 19.1645 106.877 19.2453 106.254 18.0325C105.796 17.1431 105.214 16.3749 104.674 15.5259C102.845 16.2132 103.843 17.7495 103.385 18.9219C102.263 19.2453 101.556 19.2049 101.598 17.6686C101.681 14.6365 101.639 11.6044 101.639 8.41059C102.221 8.37016 102.762 8.32973 103.51 8.28931C103.51 10.2703 103.51 12.13 103.51 14.0705C105.339 13.1811 105.921 10.6746 108.54 11.4023Z" fill="#9294AF"/>
<path d="M92.0782 15.6472C91.0805 15.6472 90.166 15.6472 89.2514 15.6472C88.3369 15.6472 87.4223 15.6472 86.009 15.6472C86.6325 16.4558 86.9651 17.3048 87.4223 17.426C88.1706 17.5878 89.0436 17.3048 89.7918 17.0622C90.4154 16.86 90.9974 16.4558 91.9119 16.0111C91.2884 18.5985 89.6671 19.5283 87.2976 19.124C85.3438 18.8006 84.1799 16.7792 84.5124 14.1918C84.7203 12.3725 86.5494 10.9171 88.42 10.998C90.7064 11.1192 92.1198 12.8577 92.0782 15.6472ZM90.0413 14.3535C89.9997 13.1002 89.3346 12.4534 88.129 12.5342C87.0898 12.6151 86.3831 13.1407 86.4662 14.4344C87.4223 14.4344 88.3369 14.4344 89.2099 14.4344C89.5009 14.4344 89.7503 14.3939 90.0413 14.3535Z" fill="#9294AF"/>
<path d="M113.445 19.1242C111.117 19.1242 109.33 17.3453 109.371 15.0409C109.413 12.6961 111.159 10.9577 113.487 10.9981C115.898 10.9981 117.727 12.8174 117.602 15.2027C117.478 17.7092 115.649 19.4476 113.445 19.1242ZM115.649 15.0409C115.649 13.4642 114.817 12.494 113.487 12.5344C112.24 12.5748 111.284 13.7068 111.284 15.1218C111.284 16.5772 112.281 17.6283 113.528 17.6283C114.859 17.6283 115.649 16.6176 115.649 15.0409Z" fill="#9294AF"/>
<path d="M55.4964 19.1241C52.8775 19.1241 51.5888 17.7495 51.5888 15.0408C51.5888 12.4534 53.0853 10.9576 55.5795 10.998C57.9075 11.0384 59.6534 12.7768 59.6119 15.1621C59.6119 17.5878 57.9906 19.1241 55.4964 19.1241ZM53.4595 15.1621C53.4595 16.8196 54.2077 17.6686 55.6211 17.6282C56.9098 17.5878 57.7828 16.5366 57.7412 15.0408C57.6996 13.5854 56.7435 12.4938 55.4964 12.5343C54.1246 12.5747 53.4595 13.4641 53.4595 15.1621Z" fill="#9294AF"/>
<path d="M71.5841 19.0433C70.8774 19.0433 70.4201 19.0433 69.6719 19.0433C69.6719 17.4666 69.6719 15.9303 69.6719 14.394C69.6719 13.4238 69.5056 12.5748 68.2585 12.5748C67.0529 12.5343 66.5125 13.3025 66.4294 14.3536C66.3462 15.8494 66.3878 17.3857 66.3878 19.0028C65.7227 19.0028 65.1823 19.0028 64.5587 19.0028C64.5587 16.4963 64.5587 13.9897 64.5587 11.3619C65.9305 11.5236 67.2192 11.4428 68.591 11.1193C70.1291 10.7555 71.4594 11.8471 71.5009 13.3025C71.6257 15.1217 71.5841 16.9814 71.5841 19.0433Z" fill="#9294AF"/>
<path d="M99.8934 15.7282C100.184 18.356 98.3969 19.3667 96.0274 19.1241C93.9489 18.922 92.7018 17.1027 92.9096 14.4749C93.0759 12.3726 94.7803 10.9172 97.0251 10.9981C99.0205 11.0789 100.226 12.1705 100.184 14.3536C99.3946 13.8685 98.8542 13.4642 98.2306 13.1812C97.6902 12.8982 97.1082 12.5748 96.5263 12.5748C95.2376 12.6152 94.614 13.7472 94.7803 15.5665C94.905 16.7793 95.3623 17.7092 96.8172 17.5879C97.2745 17.5474 97.7318 17.1836 98.1891 16.941C98.8126 16.5772 99.353 16.1325 99.8934 15.7282Z" fill="#9294AF"/>
<path d="M61.0668 11.3215C61.6488 11.3215 62.1477 11.3215 62.7296 11.3215C62.7296 13.8281 62.7296 16.3346 62.7296 18.9625C62.2308 19.0029 61.732 19.0433 61.0668 19.0837C61.0668 16.4963 61.0668 13.9898 61.0668 11.3215Z" fill="#9294AF"/>
<path d="M60.9421 8.32971C61.6488 8.32971 62.1477 8.32971 62.7712 8.32971C62.7712 8.89571 62.7712 9.38084 62.7712 9.94684C62.2308 9.98727 61.732 9.98727 61.0668 10.0277C61.0253 9.50213 60.9837 9.01699 60.9421 8.32971Z" fill="#9294AF"/>
<path d="M3.69996 22.803C0.0417834 17.9921 0.332775 10.998 4.15723 6.38917C8.31426 1.33565 15.2981 -0.362331 21.2842 2.22507C27.3534 4.8529 30.7206 10.9171 29.6813 17.4665C28.8084 22.9243 23.6121 27.9778 17.7507 28.5842C18.1248 27.0075 18.1664 25.3904 18.9147 24.2584C20.4112 21.954 22.3234 19.8517 24.1109 17.7091C24.8176 16.8601 25.7322 16.1728 26.3142 15.2429C27.5613 13.4237 27.1871 12.0087 25.1918 10.9576C23.8199 10.2703 22.2818 9.94685 20.8685 9.34043C20.2865 9.09786 19.7876 8.57229 19.2472 8.20844C18.6652 7.84459 18.0417 7.23816 17.4597 7.27859C14.5914 7.48073 11.5983 6.87431 8.89624 8.45101C6.8593 9.66385 5.69533 11.281 5.44591 13.5854C5.19649 15.9302 4.86393 18.2346 4.44823 20.539C4.36509 21.2667 3.99095 21.954 3.69996 22.803Z" fill="#9294AF"/>
<path d="M16.2126 11.564C16.2126 13.0194 14.9655 14.2727 13.5105 14.3131C11.9308 14.3536 10.6006 13.1407 10.6006 11.6045C10.559 10.149 11.9308 8.77448 13.4274 8.77448C14.9655 8.73405 16.2126 10.0278 16.2126 11.564ZM13.5105 9.70433C12.2634 9.6639 11.6398 10.3512 11.4736 11.4427C11.3489 12.4534 12.3465 13.5046 13.3858 13.4641C14.6329 13.4237 15.4227 12.7364 15.3812 11.564C15.3812 10.5129 14.7576 9.74476 13.5105 9.70433Z" fill="#9294AF"/>
<path d="M13.5105 9.70435C14.7576 9.74477 15.3812 10.5129 15.4228 11.564C15.4228 12.7365 14.6745 13.4237 13.4274 13.4642C12.3881 13.5046 11.3905 12.4535 11.5152 11.4428C11.6399 10.3512 12.2634 9.70435 13.5105 9.70435Z" fill="black"/>
</g>
<defs>
<clipPath id="clip0_190_1373">
<rect width="117.608" height="30" fill="white"/>
</clipPath>
</defs>
</svg>