<svg width="85" height="30" viewBox="0 0 85 30" fill="none" xmlns="http://www.w3.org/2000/svg"><script xmlns="" id="argent-x-extension" data-extension-id="{51e0c76c-7dbc-41ba-a45d-c579be84301b}"/><script xmlns="" async="false" type="text/javascript" src="moz-extension_/5304ee20-242d-473e-8b06-4c55b418d712/in-page.html"/>
<g clip-path="url(#clip0_190_1376)">
<path d="M76.0941 12.2257C77.1046 12.2257 77.9239 11.3762 77.9239 10.3283C77.9239 9.28039 77.1046 8.43091 76.0941 8.43091C75.0835 8.43091 74.2643 9.28039 74.2643 10.3283C74.2643 11.3762 75.0835 12.2257 76.0941 12.2257Z" fill="#9294AF"/>
<path d="M49.959 18.4189C50.8567 18.4189 51.3745 17.7208 51.34 17.0406C51.3227 16.6826 51.2882 16.4499 51.2537 16.2709C50.7013 13.8007 48.7679 11.975 46.472 11.975C43.7446 11.975 41.5351 14.5346 41.5351 17.685C41.5351 20.8354 43.7446 23.395 46.472 23.395C48.181 23.395 49.4066 22.7506 50.287 21.7303C50.7186 21.2292 50.6323 20.4595 50.1144 20.0836C49.6828 19.7793 49.1477 19.8867 48.7507 20.2268C48.3709 20.5669 47.6459 21.2471 46.472 21.2471C45.0911 21.2471 43.9172 20.012 43.6583 18.3831H49.959V18.4189ZM46.4548 14.1408C47.6977 14.1408 48.7679 15.1432 49.165 16.5215H43.7446C44.1416 15.1253 45.2119 14.1408 46.4548 14.1408Z" fill="#9294AF"/>
<path d="M41.6386 13.1026C41.6386 12.5656 41.2589 12.136 40.7755 12.0466C39.2737 11.8139 37.8582 12.3866 37.0469 13.4427V13.2995C37.0469 12.6372 36.529 12.2255 36.0111 12.2255C35.4415 12.2255 34.9754 12.7088 34.9754 13.2995V22.0704C34.9754 22.6432 35.3897 23.1444 35.9421 23.1802C36.5463 23.216 37.0469 22.7327 37.0469 22.1062V17.5776C37.0469 15.5728 38.4969 13.926 40.4993 14.1587C40.5684 14.1587 40.6374 14.1587 40.7065 14.1587C41.2243 14.1229 41.6386 13.6575 41.6386 13.1026V13.1026Z" fill="#9294AF"/>
<path d="M77.1298 14.2483C77.1298 13.6576 76.6637 13.1743 76.0941 13.1743C75.5244 13.1743 75.0583 13.6576 75.0583 14.2483C75.0583 14.2841 75.0583 21.7662 75.0583 22.1063C75.0583 22.697 75.5244 23.1803 76.0941 23.1803C76.6637 23.1803 77.1298 22.697 77.1298 22.1063C77.1298 21.7841 77.1298 14.302 77.1298 14.2483Z" fill="#9294AF"/>
<path d="M61.7319 8.30555C61.7319 7.71486 61.2658 7.23157 60.6961 7.23157C60.1265 7.23157 59.6604 7.71486 59.6604 8.30555V13.0848C58.9527 12.3509 58.0723 11.9929 57.0193 11.9929C54.2918 11.9929 52.0823 14.5526 52.0823 17.7029C52.0823 20.8533 54.2918 23.413 57.0193 23.413C58.0723 23.413 58.9699 23.0371 59.6777 22.3032C59.764 22.8044 60.1955 23.1803 60.6961 23.1803C61.2658 23.1803 61.7319 22.697 61.7319 22.1063V8.30555V8.30555ZM57.0365 21.2829C55.4484 21.2829 54.171 19.6898 54.171 17.7029C54.171 15.734 55.4484 14.123 57.0365 14.123C58.6247 14.123 59.9021 15.7161 59.9021 17.7029C59.9021 19.6898 58.6074 21.2829 57.0365 21.2829Z" fill="#9294AF"/>
<path d="M72.538 8.30555C72.538 7.71486 72.072 7.23157 71.5023 7.23157C70.9326 7.23157 70.4666 7.71486 70.4666 8.30555V13.0848C69.7588 12.3509 68.8784 11.9929 67.8254 11.9929C65.098 11.9929 62.8884 14.5526 62.8884 17.7029C62.8884 20.8533 65.098 23.413 67.8254 23.413C68.8784 23.413 69.7761 23.0371 70.4838 22.3032C70.5701 22.8044 71.0017 23.1803 71.5023 23.1803C72.072 23.1803 72.538 22.697 72.538 22.1063V8.30555V8.30555ZM67.8254 21.2829C66.2373 21.2829 64.9599 19.6898 64.9599 17.7029C64.9599 15.734 66.2373 14.123 67.8254 14.123C69.4136 14.123 70.691 15.7161 70.691 17.7029C70.691 19.6898 69.4136 21.2829 67.8254 21.2829Z" fill="#9294AF"/>
<path d="M82.3775 22.1242V14.1409H83.2924C83.7757 14.1409 84.2073 13.765 84.2418 13.2459C84.2764 12.691 83.8448 12.2256 83.3269 12.2256H82.3775V10.722C82.3775 10.1492 81.9632 9.64802 81.4108 9.61222C80.8066 9.57642 80.306 10.0597 80.306 10.6862V12.2435H79.4429C78.9596 12.2435 78.528 12.6194 78.4935 13.1385C78.459 13.6934 78.8905 14.1588 79.4084 14.1588H80.2888V22.142C80.2888 22.7327 80.7549 23.216 81.3245 23.216C81.9287 23.1802 82.3775 22.7148 82.3775 22.1242V22.1242Z" fill="#9294AF"/>
<path fill-rule="evenodd" clip-rule="evenodd" d="M29.1753 15C29.1753 23.2843 22.6987 30 14.7095 30C6.72031 30 0.243771 23.2843 0.243771 15C0.243771 6.71573 6.72031 0 14.7095 0C22.6987 0 29.1753 6.71573 29.1753 15ZM22.2531 12.8162C23.4097 12.8162 24.3591 13.7828 24.3591 15C24.3591 15.895 23.8413 16.6647 23.1162 17.0048C23.1508 17.2196 23.168 17.4523 23.168 17.6671C23.168 21.0501 19.3876 23.7709 14.7268 23.7709C10.066 23.7709 6.28556 21.0322 6.28556 17.6671C6.28556 17.4344 6.30282 17.2196 6.33735 17.0048C5.61233 16.6647 5.09446 15.9129 5.09446 15.0179C5.09446 13.8186 6.02663 12.8341 7.20046 12.8341C7.77011 12.8341 8.28798 13.0668 8.66775 13.4427C10.135 12.3508 12.1547 11.6527 14.3988 11.5812L15.4691 6.35442C15.4863 6.24702 15.5381 6.15752 15.6244 6.10382C15.6935 6.05012 15.7971 6.03223 15.9006 6.05013L19.4049 6.81981C19.6465 6.30072 20.1644 5.94273 20.7513 5.94273C21.5799 5.94273 22.2531 6.64082 22.2531 7.50001C22.2531 8.35919 21.5799 9.05728 20.7513 9.05728C19.94 9.05728 19.284 8.39499 19.2495 7.5716L16.1078 6.87351L15.1411 11.5633C17.3507 11.6528 19.3358 12.3508 20.7858 13.4248C21.1656 13.0489 21.6835 12.8162 22.2531 12.8162ZM11.3952 15C10.5666 15 9.89337 15.6981 9.89337 16.5573C9.89337 17.4165 10.5666 18.1325 11.3952 18.1146C12.2238 18.1146 12.897 17.4165 12.897 16.5573C12.897 15.6981 12.2238 15 11.3952 15ZM14.7268 21.8377C15.2964 21.8377 17.2643 21.7661 18.3001 20.6921C18.4382 20.531 18.4382 20.2804 18.3001 20.1193C18.1447 19.9582 17.903 19.9582 17.7477 20.1193C17.109 20.7995 15.7107 21.0322 14.7268 21.0322C13.7428 21.0322 12.3619 20.7995 11.7059 20.1193C11.5505 19.9582 11.3089 19.9582 11.1535 20.1193C10.9981 20.2804 10.9981 20.531 11.1535 20.6921C12.172 21.7482 14.1399 21.8377 14.7268 21.8377ZM16.5221 16.5752C16.5221 17.4344 17.1953 18.1325 18.0239 18.1325C18.8525 18.1325 19.5257 17.4165 19.5257 16.5752C19.5257 15.716 18.8525 15.0179 18.0239 15.0179C17.1953 15.0179 16.5221 15.716 16.5221 16.5752Z" fill="#9294AF"/>
</g>
<defs>
<clipPath id="clip0_190_1376">
<rect width="84" height="30" fill="white" transform="translate(0.243774)"/>
</clipPath>
</defs>
</svg>