<svg width="172" height="30" viewBox="0 0 172 30" fill="none" xmlns="http://www.w3.org/2000/svg"><script xmlns="" id="argent-x-extension" data-extension-id="{51e0c76c-7dbc-41ba-a45d-c579be84301b}"/><script xmlns="" async="false" type="text/javascript" src="moz-extension_/5304ee20-242d-473e-8b06-4c55b418d712/in-page.html"/>
<g clip-path="url(#clip0_190_1377)">
<path d="M25.5579 17.8857C25.0437 18.1999 24.4437 18.2571 23.9865 17.9999C23.4151 17.6571 23.0722 16.8857 23.0722 15.8285V12.5999C23.0722 11.0571 22.4722 9.94279 21.4437 9.65708C19.7008 9.14279 18.3865 11.2857 17.9008 12.0857L14.8151 17.0285V10.9428C14.7865 9.54279 14.3294 8.71423 13.4722 8.45708C12.9008 8.28566 12.0437 8.37137 11.2151 9.62851L4.32937 20.6571C3.41509 18.9142 2.92937 16.9714 2.92937 14.9999C2.92937 8.3428 8.27223 2.94279 14.8151 2.94279C21.3579 2.94279 26.7008 8.3428 26.7008 14.9999V15.0285V15.0571C26.7579 16.3428 26.3579 17.3714 25.5579 17.8857ZM29.3294 14.9999V14.9714V14.9428C29.3008 6.85708 22.7865 0.25708 14.8151 0.25708C6.81508 0.25708 0.3008 6.85708 0.3008 14.9999C0.3008 23.1142 6.81508 29.7428 14.8151 29.7428C18.5008 29.7428 21.9865 28.3428 24.6722 25.7999C25.2151 25.2857 25.2437 24.4571 24.7294 23.9142C24.2437 23.3714 23.4151 23.3428 22.8722 23.8285C22.8722 23.8285 22.8722 23.8285 22.8437 23.8571C20.6722 25.9142 17.7579 27.0857 14.7579 27.0857C11.2437 27.0857 8.1008 25.5428 5.92937 23.0857L12.1294 13.1428V17.7428C12.1294 19.9428 12.9865 20.6571 13.7008 20.8571C14.4151 21.0571 15.5008 20.9142 16.6722 19.0571L20.0722 13.5428C20.1865 13.3714 20.2722 13.1999 20.3865 13.0857V15.8857C20.3865 17.9428 21.2151 19.5999 22.6437 20.3999C23.9294 21.1428 25.5579 21.0571 26.9008 20.2285C28.5579 19.1428 29.4437 17.2571 29.3294 14.9999ZM49.5579 9.97137C49.9008 10.1714 50.2151 10.6571 50.2151 11.0857C50.2151 11.7714 49.6437 12.3428 48.9865 12.3428C48.8151 12.3428 48.6722 12.2857 48.5294 12.2571C47.7579 11.6857 46.7865 11.3142 45.7579 11.3142C43.3294 11.3142 41.6722 13.2857 41.6722 15.7428C41.6722 18.1999 43.3579 20.1428 45.7579 20.1428C46.9579 20.1428 48.0437 19.6571 48.8437 18.8857C49.0437 18.7428 49.3008 18.6571 49.5579 18.6571C50.2151 18.6571 50.7294 19.1714 50.7294 19.8285C50.7294 20.2571 50.4722 20.6285 50.1579 20.8285C48.9865 21.8285 47.4151 22.4857 45.7865 22.4857C42.0722 22.4857 39.0437 19.4285 39.0437 15.6571C39.0437 11.8857 42.0722 8.82851 45.7865 8.82851C47.1579 8.79994 48.4722 9.22851 49.5579 9.97137ZM56.3579 12.8285C58.9008 12.8285 61.0151 14.9714 61.0151 17.6285C61.0151 20.2571 58.8722 22.5142 56.3579 22.5142C53.7008 22.5142 51.5008 20.2857 51.5008 17.6285C51.5008 14.9714 53.7008 12.8285 56.3579 12.8285ZM56.3294 20.1428C57.4436 20.1428 58.3865 19.0857 58.3865 17.6571C58.3865 16.2285 57.4436 15.3142 56.3294 15.3142C55.1294 15.3142 54.1294 16.1999 54.1294 17.6571C54.1294 19.0571 55.1294 20.1428 56.3294 20.1428ZM62.6151 21.0285V14.2857C62.6151 13.5428 63.1865 12.9428 63.9294 12.9428C64.6436 12.9428 65.2436 13.5428 65.2436 14.2857V21.0285C65.2436 21.7714 64.6436 22.3714 63.9294 22.3714C63.2151 22.3714 62.6151 21.7428 62.6151 21.0285ZM62.4151 10.3999C62.4151 9.51422 63.1008 8.82851 63.9294 8.82851C64.7865 8.82851 65.4722 9.54279 65.4722 10.3999C65.4722 11.2571 64.7865 11.9428 63.9294 11.9428C63.0722 11.9142 62.4151 11.2285 62.4151 10.3999ZM70.2722 17.3714V21.0285C70.2722 21.7714 69.6722 22.3714 68.9579 22.3714C68.2436 22.3714 67.6436 21.7714 67.6436 21.0285V13.9714C67.6436 13.3999 68.1008 12.9428 68.6722 12.9428C69.2436 12.9428 69.6722 13.4285 69.6722 13.9714C70.7294 12.9714 71.6722 12.8285 72.5579 12.8285C75.1865 12.8285 76.3579 14.7999 76.3579 17.0571V21.0285C76.3579 21.7714 75.7579 22.3714 75.0436 22.3714C74.3294 22.3714 73.7294 21.7714 73.7294 21.0285V17.3714C73.7294 16.2285 73.5865 15.2571 71.9294 15.2571C70.7579 15.2571 70.2722 16.2285 70.2722 17.3714ZM84.8722 18.7714C84.5579 18.7714 84.3579 18.6285 84.1865 18.4285L81.1294 15.1142V21.0285C81.1294 21.7714 80.5294 22.3714 79.8151 22.3714C79.1008 22.3714 78.5008 21.7714 78.5008 21.0285V9.31423C78.5865 9.11423 78.7865 8.97137 78.9865 8.97137C79.2151 8.97137 79.4151 9.17137 79.5579 9.31423L84.4436 14.7999C84.5865 14.9714 84.7579 15.0571 84.8722 15.0571C84.9579 15.0571 85.1579 14.9714 85.3008 14.7999L90.1865 9.31423C90.3294 9.17137 90.5008 8.97137 90.7579 8.97137C90.9865 8.97137 91.1865 9.11423 91.2436 9.31423V21.0285C91.2436 21.7714 90.6722 22.3714 89.9294 22.3714C89.2151 22.3714 88.6151 21.7714 88.6151 21.0285V15.1142L85.5579 18.4285C85.3294 18.6285 85.1294 18.7714 84.8722 18.7714ZM97.5008 20.1428C98.6722 20.1428 99.6722 19.0857 99.6722 17.6571C99.6722 16.2285 98.6436 15.2857 97.5008 15.2857C96.3579 15.2857 95.4151 16.2571 95.4151 17.6571C95.4151 19.0285 96.3294 20.1428 97.5008 20.1428ZM100.301 21.3428L100.244 21.0285C99.7294 22.0285 98.1008 22.4857 97.0722 22.4857C94.6151 22.4857 92.7865 20.2571 92.7865 17.5999C92.7865 14.9714 94.6436 12.7999 97.2151 12.7999C97.6436 12.7999 99.1294 12.9142 100.272 14.2571L100.329 13.9428C100.329 13.3714 100.758 12.9142 101.329 12.9142C101.901 12.9142 102.358 13.3999 102.358 13.9428V21.3142C102.358 21.8857 101.901 22.3428 101.329 22.3428C100.729 22.3714 100.301 21.8857 100.301 21.3428ZM109.586 15.2571H109.301C107.644 15.3428 107.329 16.2857 107.329 17.3714V21.0285C107.329 21.7714 106.729 22.3714 106.015 22.3714C105.301 22.3714 104.701 21.7714 104.701 21.0285V13.9714C104.701 13.3999 105.158 12.9428 105.729 12.9428C106.301 12.9428 106.729 13.4285 106.729 13.9714C107.701 13.0571 108.501 12.8571 109.301 12.8285H109.558C110.186 12.8285 110.758 13.3714 110.758 14.0571C110.786 14.6857 110.215 15.2571 109.586 15.2571ZM119.729 20.3999C119.844 20.5999 119.929 20.7999 119.929 21.0285C119.929 21.7142 119.301 22.3428 118.615 22.3428C118.158 22.3428 117.758 21.9999 117.444 21.5999L114.415 18.0857V20.9999C114.415 21.7428 113.815 22.3428 113.101 22.3428C112.386 22.3428 111.786 21.7428 111.786 20.9999V10.2857C111.786 9.5428 112.358 8.94279 113.101 8.94279C113.844 8.94279 114.415 9.5428 114.415 10.2857V16.9714L117.444 13.6285C117.758 13.2857 118.129 12.9142 118.586 12.9142C119.244 12.9142 119.844 13.5142 119.844 14.1999C119.844 14.3999 119.786 14.6285 119.672 14.7999L117.272 17.4285L119.729 20.3999ZM124.872 15.2857C124.158 15.2857 122.986 15.6571 122.986 16.7714H126.786C126.758 15.6571 125.558 15.2857 124.872 15.2857ZM128.301 18.4571H122.986C122.986 20.0285 124.501 20.2857 125.158 20.2857C125.644 20.2857 126.329 20.1999 126.872 19.9428C127.044 19.8285 127.301 19.7428 127.558 19.7428C128.129 19.7428 128.615 20.2285 128.615 20.8285C128.615 21.2285 128.358 21.5714 128.044 21.7714C127.244 22.3714 126.186 22.5142 125.186 22.5142C122.529 22.5142 120.329 21.0857 120.329 17.7428C120.329 15.1142 121.672 12.8285 124.815 12.8285C127.358 12.8285 129.272 14.4857 129.329 17.4285C129.329 17.9714 128.872 18.4571 128.301 18.4571ZM135.615 22.4857H134.901C132.901 22.4857 131.729 21.5999 131.729 18.4857V15.2571H131.044C130.415 15.2571 129.872 14.6857 129.872 14.0571C129.872 13.3714 130.444 12.8285 131.044 12.8285H131.729V10.3428C131.729 9.59994 132.301 8.99994 133.044 8.99994C133.758 8.99994 134.358 9.59994 134.358 10.3428V12.8285H135.444C136.072 12.8285 136.615 13.3714 136.615 14.0571C136.615 14.6857 136.044 15.2571 135.444 15.2571H134.358V17.9714C134.358 19.7714 134.444 20.1428 135.244 20.1428H135.615C136.244 20.1428 136.786 20.6571 136.786 21.3142C136.786 21.9428 136.244 22.4857 135.615 22.4857ZM148.329 9.97137C148.672 10.1714 148.986 10.6571 148.986 11.0857C148.986 11.7714 148.415 12.3428 147.758 12.3428C147.586 12.3428 147.444 12.2857 147.301 12.2571C146.529 11.6857 145.558 11.3142 144.529 11.3142C142.101 11.3142 140.444 13.2857 140.444 15.7428C140.444 18.1999 142.129 20.1428 144.529 20.1428C145.729 20.1428 146.815 19.6571 147.615 18.8857C147.815 18.7428 148.072 18.6571 148.329 18.6571C148.986 18.6571 149.501 19.1714 149.501 19.8285C149.501 20.2571 149.244 20.6285 148.929 20.8285C147.758 21.8285 146.186 22.4857 144.558 22.4857C140.844 22.4857 137.815 19.4285 137.815 15.6571C137.815 11.8857 140.844 8.82851 144.558 8.82851C145.929 8.79994 147.272 9.22851 148.329 9.97137ZM154.986 20.1428C156.158 20.1428 157.158 19.0857 157.158 17.6571C157.158 16.2285 156.129 15.2857 154.986 15.2857C153.815 15.2857 152.901 16.2571 152.901 17.6571C152.901 19.0285 153.844 20.1428 154.986 20.1428ZM157.786 21.3428L157.729 21.0285C157.215 22.0285 155.586 22.4857 154.558 22.4857C152.101 22.4857 150.272 20.2571 150.272 17.5999C150.272 14.9714 152.129 12.7999 154.701 12.7999C155.129 12.7999 156.615 12.9142 157.758 14.2571L157.815 13.9428C157.815 13.3714 158.244 12.9142 158.815 12.9142C159.386 12.9142 159.844 13.3999 159.844 13.9428V21.3142C159.844 21.8857 159.386 22.3428 158.815 22.3428C158.215 22.3714 157.786 21.8857 157.786 21.3428ZM167.015 20.1428C168.186 20.1428 169.101 19.0285 169.101 17.6571C169.101 16.2285 168.158 15.2857 167.015 15.2857C165.844 15.2857 164.844 16.2285 164.844 17.6571C164.844 19.0857 165.844 20.1428 167.015 20.1428ZM164.844 21.7142V25.0571C164.844 25.7999 164.244 26.3999 163.529 26.3999C162.815 26.3999 162.215 25.7999 162.215 25.0571V13.9714C162.215 13.3999 162.672 12.9428 163.244 12.9428C163.815 12.9428 164.244 13.4285 164.244 14.0857C165.215 13.0857 166.415 12.8285 167.329 12.8285C169.872 12.8285 171.758 14.9714 171.758 17.6285C171.758 20.2571 169.958 22.5142 167.472 22.5142C166.701 22.4857 165.558 22.2571 164.844 21.7142Z" fill="#9294AF"/>
</g>
<defs>
<clipPath id="clip0_190_1377">
<rect width="171.714" height="30" fill="white" transform="translate(0.243774)"/>
</clipPath>
</defs>
</svg>