<svg width="80" height="80" viewBox="0 0 80 80" fill="none" xmlns="http://www.w3.org/2000/svg"><script xmlns="" id="argent-x-extension" data-extension-id="{51e0c76c-7dbc-41ba-a45d-c579be84301b}"/><script xmlns="" async="false" type="text/javascript" src="moz-extension_/5304ee20-242d-473e-8b06-4c55b418d712/in-page.html"/>
<rect width="80" height="80" rx="16" fill="url(#paint0_linear_201_1432)"/>
<path d="M53.8369 34.4961C53.1642 34.3691 52.5358 34.0703 52.0127 33.6287C51.4896 33.1872 51.0895 32.6178 50.8514 31.976C50.6134 31.3342 50.5453 30.6417 50.6539 29.9658C50.7625 29.2899 51.044 28.6536 51.4711 28.1186L41.5192 22.3713C41.0921 22.1279 40.6091 22 40.1177 22C39.6262 22 39.1432 22.1279 38.7162 22.3713L28.8222 28.0929C29.2591 28.6314 29.5474 29.275 29.6583 29.9595C29.7692 30.644 29.6989 31.3456 29.4544 31.9945C29.21 32.6435 28.7998 33.217 28.2647 33.6581C27.7297 34.0993 27.0884 34.3926 26.4048 34.5089C25.9797 34.5861 25.5442 34.5861 25.1191 34.5089V45.933C25.1189 46.4255 25.2483 46.9093 25.4943 47.3359C25.7403 47.7624 26.0943 48.1167 26.5206 48.3631L36.3825 54.0655C36.6531 53.2898 37.1584 52.6174 37.8282 52.1417C38.4981 51.6659 39.2993 51.4103 40.1209 51.4103C40.9425 51.4103 41.7438 51.6659 42.4136 52.1417C43.0834 52.6175 43.5887 53.2899 43.8593 54.0656L53.7211 48.3631C54.1466 48.1157 54.4998 47.7612 54.7457 47.3348C54.9916 46.9085 55.1215 46.4252 55.1226 45.933V34.5154C54.6968 34.5918 54.2602 34.5853 53.8369 34.4961V34.4961ZM40.6513 49.0189C40.5388 49.119 40.3982 49.1819 40.2486 49.1992C40.099 49.2165 39.9478 49.1872 39.8155 49.1153L32.6473 44.6473C32.5546 44.5894 32.4782 44.5089 32.4254 44.4132C32.3725 44.3176 32.3449 44.2101 32.3452 44.1008V35.7111C32.3447 35.5995 32.3735 35.4896 32.4288 35.3926C32.4841 35.2956 32.5639 35.2148 32.6602 35.1583L39.8605 30.8766C39.9594 30.8167 40.0728 30.785 40.1884 30.785C40.304 30.785 40.4174 30.8167 40.5163 30.8766L47.6587 35.1583C47.7526 35.2169 47.8301 35.2984 47.8841 35.395C47.938 35.4917 47.9667 35.6004 47.9673 35.7111V44.0687C47.969 44.1782 47.942 44.2862 47.889 44.3821C47.836 44.478 47.7588 44.5583 47.6652 44.6151L40.6513 49.0189Z" fill="#B0AEFF"/>
<path d="M40.1177 52.6705C39.4159 52.6781 38.7455 52.9622 38.2519 53.4611C37.7583 53.96 37.4815 54.6335 37.4815 55.3353C37.4815 56.0371 37.7584 56.7106 38.252 57.2095C38.7455 57.7084 39.416 57.9925 40.1178 58.0001C40.8195 57.9925 41.49 57.7084 41.9836 57.2095C42.4772 56.7106 42.754 56.0371 42.754 55.3353C42.754 54.6335 42.4771 53.96 41.9835 53.4611C41.49 52.9621 40.8195 52.6781 40.1177 52.6705V52.6705Z" fill="#B0AEFF"/>
<path d="M28.4429 30.613C28.4362 29.9098 28.1521 29.2378 27.6525 28.7429C27.1529 28.2481 26.4781 27.9705 25.7749 27.9705C25.0717 27.9705 24.3969 28.2481 23.8973 28.7429C23.3977 29.2378 23.1137 29.9099 23.1069 30.6131C23.1137 31.3162 23.3977 31.9883 23.8973 32.4832C24.397 32.978 25.0717 33.2556 25.7749 33.2556C26.4781 33.2556 27.1529 32.978 27.6525 32.4831C28.1521 31.9883 28.4362 31.3162 28.4429 30.613Z" fill="#B0AEFF"/>
<path d="M54.5376 27.9449C53.8341 27.9511 53.1615 28.235 52.6662 28.7346C52.1709 29.2343 51.893 29.9094 51.893 30.613C51.893 31.3165 52.1709 31.9916 52.6662 32.4913C53.1615 32.9909 53.8342 33.2747 54.5377 33.2809C55.2412 33.2747 55.9138 32.9909 56.4091 32.4912C56.9044 31.9915 57.1823 31.3165 57.1823 30.6129C57.1823 29.9093 56.9044 29.2343 56.4091 28.7346C55.9138 28.2349 55.2412 27.9511 54.5376 27.9449V27.9449Z" fill="#B0AEFF"/>
<path d="M40.1884 32.1818L34.2417 35.7112L40.1884 39.2664L46.0772 35.7112L40.1884 32.1818Z" fill="#B0AEFF"/>
<path d="M33.631 43.7473L39.5455 47.431V40.3786L33.631 36.8491V43.7473Z" fill="#B0AEFF"/>
<path d="M40.8313 47.3859L46.6816 43.7151V36.8555L40.8313 40.3785V47.3859Z" fill="#B0AEFF"/>
<defs>
<linearGradient id="paint0_linear_201_1432" x1="40" y1="0" x2="40" y2="80" gradientUnits="userSpaceOnUse">
<stop stop-color="#17284E"/>
<stop offset="1" stop-color="#193764"/>
</linearGradient>
</defs>
</svg>